  0
SECTION
  2
HEADER
  9
$ACADVER
  1
AC1009
  9
$INSBASE
 10
0.0
 20
0.0
 30
0.0
  9
$EXTMIN
 10
-74.957462680973549
 20
-0.1611122669275278
 30
0.0
  9
$EXTMAX
 10
113.80420077857821
 20
91.368284576895348
 30
0.0
  9
$LIMMIN
 10
0.0
 20
0.0
  9
$LIMMAX
 10
420.0
 20
297.0
  9
$ORTHOMODE
 70
     0
  9
$REGENMODE
 70
     1
  9
$FILLMODE
 70
     1
  9
$QTEXTMODE
 70
     0
  9
$MIRRTEXT
 70
     0
  9
$DRAGMODE
 70
     2
  9
$LTSCALE
 40
1.0
  9
$OSMODE
 70
    55
  9
$ATTMODE
 70
     1
  9
$TEXTSIZE
 40
2.5
  9
$TRACEWID
 40
1.0
  9
$TEXTSTYLE
  7
STANDARD
  9
$CLAYER
  8
0
  9
$CELTYPE
  6
BYLAYER
  9
$CECOLOR
 62
   256
  9
$DIMSCALE
 40
1.0
  9
$DIMASZ
 40
2.5
  9
$DIMEXO
 40
0.625
  9
$DIMDLI
 40
3.75
  9
$DIMRND
 40
0.0
  9
$DIMDLE
 40
0.0
  9
$DIMEXE
 40
1.25
  9
$DIMTP
 40
0.0
  9
$DIMTM
 40
0.0
  9
$DIMTXT
 40
2.5
  9
$DIMCEN
 40
2.5
  9
$DIMTSZ
 40
0.0
  9
$DIMTOL
 70
     0
  9
$DIMLIM
 70
     0
  9
$DIMTIH
 70
     0
  9
$DIMTOH
 70
     0
  9
$DIMSE1
 70
     0
  9
$DIMSE2
 70
     0
  9
$DIMTAD
 70
     1
  9
$DIMZIN
 70
     8
  9
$DIMBLK
  1

  9
$DIMASO
 70
     1
  9
$DIMSHO
 70
     1
  9
$DIMPOST
  1

  9
$DIMAPOST
  1

  9
$DIMALT
 70
     0
  9
$DIMALTD
 70
     3
  9
$DIMALTF
 40
0.03937007874016
  9
$DIMLFAC
 40
1.0
  9
$DIMTOFL
 70
     1
  9
$DIMTVP
 40
0.0
  9
$DIMTIX
 70
     0
  9
$DIMSOXD
 70
     0
  9
$DIMSAH
 70
     0
  9
$DIMBLK1
  1

  9
$DIMBLK2
  1

  9
$DIMSTYLE
  2
ISO-25
  9
$DIMCLRD
 70
     0
  9
$DIMCLRE
 70
     0
  9
$DIMCLRT
 70
     0
  9
$DIMTFAC
 40
1.0
  9
$DIMGAP
 40
0.625
  9
$LUNITS
 70
     2
  9
$LUPREC
 70
     4
  9
$SKETCHINC
 40
1.0
  9
$FILLETRAD
 40
0.0
  9
$AUNITS
 70
     0
  9
$AUPREC
 70
     0
  9
$MENU
  1
.
  9
$ELEVATION
 40
0.0
  9
$PELEVATION
 40
0.0
  9
$THICKNESS
 40
0.0
  9
$LIMCHECK
 70
     0
  9
$BLIPMODE
 70
     0
  9
$CHAMFERA
 40
0.0
  9
$CHAMFERB
 40
0.0
  9
$SKPOLY
 70
     0
  9
$TDCREATE
 40
2455296.3575657988
  9
$TDUPDATE
 40
2455306.730025949
  9
$TDINDWG
 40
0.126041956
  9
$TDUSRTIMER
 40
0.1260315625
  9
$USRTIMER
 70
     1
  9
$ANGBASE
 50
0.0
  9
$ANGDIR
 70
     0
  9
$PDMODE
 70
     0
  9
$PDSIZE
 40
0.0
  9
$PLINEWID
 40
0.0
  9
$COORDS
 70
     1
  9
$SPLFRAME
 70
     0
  9
$SPLINETYPE
 70
     6
  9
$SPLINESEGS
 70
     8
  9
$ATTDIA
 70
     0
  9
$ATTREQ
 70
     1
  9
$HANDLING
 70
     1
  9
$HANDSEED
  5
F29
  9
$SURFTAB1
 70
     6
  9
$SURFTAB2
 70
     6
  9
$SURFTYPE
 70
     6
  9
$SURFU
 70
     6
  9
$SURFV
 70
     6
  9
$UCSNAME
  2

  9
$UCSORG
 10
0.0
 20
0.0
 30
0.0
  9
$UCSXDIR
 10
1.0
 20
0.0
 30
0.0
  9
$UCSYDIR
 10
0.0
 20
1.0
 30
0.0
  9
$PUCSNAME
  2

  9
$PUCSORG
 10
0.0
 20
0.0
 30
0.0
  9
$PUCSXDIR
 10
1.0
 20
0.0
 30
0.0
  9
$PUCSYDIR
 10
0.0
 20
1.0
 30
0.0
  9
$USERI1
 70
     0
  9
$USERI2
 70
     0
  9
$USERI3
 70
     0
  9
$USERI4
 70
     0
  9
$USERI5
 70
     0
  9
$USERR1
 40
0.0
  9
$USERR2
 40
0.0
  9
$USERR3
 40
0.0
  9
$USERR4
 40
0.0
  9
$USERR5
 40
0.0
  9
$WORLDVIEW
 70
     1
  9
$SHADEDGE
 70
     3
  9
$SHADEDIF
 70
    70
  9
$TILEMODE
 70
     1
  9
$MAXACTVP
 70
    64
  9
$PLIMCHECK
 70
     0
  9
$PEXTMIN
 10
0.0
 20
0.0
 30
0.0
  9
$PEXTMAX
 10
0.0
 20
0.0
 30
0.0
  9
$PLIMMIN
 10
0.0
 20
0.0
  9
$PLIMMAX
 10
12.0
 20
9.0
  9
$UNITMODE
 70
     0
  9
$VISRETAIN
 70
     1
  9
$PLINEGEN
 70
     0
  9
$PSLTSCALE
 70
     1
  0
ENDSEC
  0
SECTION
  2
TABLES
  0
TABLE
  2
VPORT
 70
     1
  0
VPORT
  2
*ACTIVE
 70
     0
 10
0.0
 20
0.0
 11
1.0
 21
1.0
 12
55.988882643874007
 22
44.412482882327417
 13
0.0
 23
0.0
 14
10.0
 24
10.0
 15
10.0
 25
10.0
 16
0.0
 26
0.0
 36
1.0
 17
0.0
 27
0.0
 37
0.0
 40
114.2494516161708
 41
2.3647058823529412
 42
50.0
 43
0.0
 44
0.0
 50
0.0
 51
0.0
 71
     0
 72
  1000
 73
     1
 74
     3
 75
     0
 76
     0
 77
     0
 78
     0
  0
ENDTAB
  0
TABLE
  2
LTYPE
 70
     1
  0
LTYPE
  2
CONTINUOUS
 70
     0
  3
Solid line
 72
    65
 73
     0
 40
0.0
  0
ENDTAB
  0
TABLE
  2
LAYER
 70
     3
  0
LAYER
  2
0
 70
     0
 62
     7
  6
CONTINUOUS
  0
LAYER
  2
BIJ
 70
     0
 62
    10
  6
CONTINUOUS
  0
LAYER
  2
LINKS
 70
     0
 62
    50
  6
CONTINUOUS
  0
ENDTAB
  0
TABLE
  2
STYLE
 70
     2
  0
STYLE
  2
STANDARD
 70
     0
 40
0.0
 41
1.0
 50
0.0
 71
     0
 42
2.5
  3
txt
  4

  0
STYLE
  2
ANNOTATIVE
 70
     0
 40
0.0
 41
1.0
 50
0.0
 71
     0
 42
2.5
  3
txt.shx
  4

  0
ENDTAB
  0
TABLE
  2
VIEW
 70
     0
  0
ENDTAB
  0
TABLE
  2
UCS
 70
     0
  0
ENDTAB
  0
TABLE
  2
APPID
 70
     9
  0
APPID
  2
ACAD
 70
     0
  0
APPID
  2
ACADANNOTATIVE
 70
     0
  0
APPID
  2
ACAD_MLEADERVER
 70
     0
  0
APPID
  2
ACAD_PSEXT
 70
     0
  0
APPID
  2
ACADANNOPO
 70
     0
  0
APPID
  2
ACAD_DSTYLE_DIMJAG
 70
     0
  0
APPID
  2
ACAD_DSTYLE_DIMTALN
 70
     0
  0
APPID
  2
ACAD_EXEMPT_FROM_CAD_STANDARDS
 70
     0
  0
APPID
  2
ACAECLAYERSTANDARD
 70
     0
  0
ENDTAB
  0
TABLE
  2
DIMSTYLE
 70
     3
  0
DIMSTYLE
  2
STANDARD
 70
     0
  3

  4

  5

  6

  7

 40
1.0
 41
0.18
 42
0.0625
 43
0.38
 44
0.18
 45
0.0
 46
0.0
 47
0.0
 48
0.0
140
0.18
141
0.09
142
0.0
143
25.399999999999999
144
1.0
145
0.0
146
1.0
147
0.09
 71
     0
 72
     0
 73
     1
 74
     1
 75
     0
 76
     0
 77
     0
 78
     0
170
     0
171
     2
172
     0
173
     0
174
     0
175
     0
176
     0
177
     0
178
     0
  0
DIMSTYLE
  2
ANNOTATIVE
 70
     0
  3

  4

  5

  6

  7

 40
0.0
 41
2.5
 42
0.625
 43
3.75
 44
1.25
 45
0.0
 46
0.0
 47
0.0
 48
0.0
140
2.5
141
2.5
142
0.0
143
0.03937007874016
144
1.0
145
0.0
146
1.0
147
0.625
 71
     0
 72
     0
 73
     0
 74
     0
 75
     0
 76
     0
 77
     1
 78
     8
170
     0
171
     3
172
     1
173
     0
174
     0
175
     0
176
     0
177
     0
178
     0
  0
DIMSTYLE
  2
ISO-25
 70
     0
  3

  4

  5

  6

  7

 40
1.0
 41
2.5
 42
0.625
 43
3.75
 44
1.25
 45
0.0
 46
0.0
 47
0.0
 48
0.0
140
2.5
141
2.5
142
0.0
143
0.03937007874016
144
1.0
145
0.0
146
1.0
147
0.625
 71
     0
 72
     0
 73
     0
 74
     0
 75
     0
 76
     0
 77
     1
 78
     8
170
     0
171
     3
172
     1
173
     0
174
     0
175
     0
176
     0
177
     0
178
     0
  0
ENDTAB
  0
ENDSEC
  0
SECTION
  2
BLOCKS
  0
BLOCK
  8
0
  2
$MODEL_SPACE
 70
     0
 10
0.0
 20
0.0
 30
0.0
  3
$MODEL_SPACE
  1

  0
ENDBLK
  5
EB8
  8
0
  0
BLOCK
 67
     1
  8
0
  2
$PAPER_SPACE
 70
     0
 10
0.0
 20
0.0
 30
0.0
  3
$PAPER_SPACE
  1

  0
ENDBLK
  5
EB4
 67
     1
  8
0
  0
ENDSEC
  0
SECTION
  2
ENTITIES
  0
CIRCLE
  5
1D4
  8
0
 10
12.800000021756141
 20
18.499999976963728
 30
0.0
 40
1.5
  0
LINE
  5
1D5
  8
0
 10
48.500000021755902
 20
4.4999999769635961
 30
0.0
 11
48.500000021756371
 21
23.13603894628482
 31
0.0
  0
LINE
  5
1D6
  8
0
 10
30.033365320192271
 20
38.99999997696375
 30
0.0
 11
18.466634723320901
 21
38.99999997696375
 31
0.0
  0
LINE
  5
1D7
  8
0
 10
0.0000000217563638
 20
23.136038946284781
 30
0.0
 11
0.0000000217561364
 21
4.4999999769637347
 31
0.0
  0
CIRCLE
  5
1D8
  8
0
 10
18.800000021756141
 20
35.469999976963749
 30
0.0
 40
1.5
  0
CIRCLE
  5
1D9
  8
0
 10
30.000000021756129
 20
35.469999976963742
 30
0.0
 40
1.5
  0
LINE
  5
1DA
  8
0
 10
42.600000021756152
 20
24.949999976963731
 30
0.0
 11
19.90000002175611
 21
24.949999976963731
 31
0.0
  0
LINE
  5
1DB
  8
0
 10
19.90000002175611
 20
12.04999997696374
 30
0.0
 11
42.600000021756152
 21
12.04999997696374
 31
0.0
  0
LINE
  5
1DC
  8
0
 10
42.600000021756152
 20
24.949999976963731
 30
0.0
 11
42.600000021756152
 21
12.04999997696374
 31
0.0
  0
LINE
  5
1DD
  8
0
 10
19.90000002175611
 20
24.949999976963731
 30
0.0
 11
19.90000002175611
 21
12.04999997696374
 31
0.0
  0
LINE
  5
1DE
  8
0
 10
47.181980537095882
 20
26.318019461624381
 30
0.0
 11
32.877903951680537
 21
37.986918383518599
 31
0.0
  0
LINE
  5
1DF
  8
0
 10
15.62209609183253
 20
37.986918383518613
 30
0.0
 11
1.3180195064167031
 21
26.31801946162425
 31
0.0
  0
ARC
  5
1E0
  8
0
 10
44.000000021756357
 20
23.136038946284941
 30
0.0
 40
4.5
 50
359.99999999999841
 51
44.999999999999417
  0
ARC
  5
1E1
  8
0
 10
4.5000000217561347
 20
23.136038946284781
 30
0.0
 40
4.5
 50
135.00000000000031
 51
180.0
  0
ARC
  5
1E2
  8
0
 10
44.000000021755902
 20
4.4999999769637347
 30
0.0
 40
4.5
 50
270.0
 51
359.99999999999841
  0
ARC
  5
1E3
  8
0
 10
4.5000000217561347
 20
4.4999999769637347
 30
0.0
 40
4.5
 50
180.0
 51
270.0
  0
LINE
  5
1E4
  8
0
 10
4.5000000217561347
 20
-0.0000000230362574
 30
0.0
 11
4.5000000217561347
 21
3.9999999769637351
 31
0.0
  0
LINE
  5
1E5
  8
0
 10
4.5000000217561347
 20
3.9999999769637351
 30
0.0
 11
10.500000021756129
 21
3.9999999769637351
 31
0.0
  0
LINE
  5
1E6
  8
0
 10
10.500000021756129
 20
3.9999999769637351
 30
0.0
 11
10.500000021756129
 21
-0.0000000230362574
 31
0.0
  0
LINE
  5
1E7
  8
0
 10
44.000000021755902
 20
-0.0000000230362574
 30
0.0
 11
44.000000021755902
 21
3.9999999769637351
 31
0.0
  0
LINE
  5
1E8
  8
0
 10
44.000000021755902
 20
3.9999999769637351
 30
0.0
 11
38.000000021755923
 21
3.9999999769637351
 31
0.0
  0
LINE
  5
1E9
  8
0
 10
38.000000021755923
 20
3.9999999769637351
 30
0.0
 11
38.000000021755923
 21
-0.0000000230362574
 31
0.0
  0
LINE
  5
1EA
  8
0
 10
18.250000021756129
 20
3.9999999769637351
 30
0.0
 11
30.250000021756151
 21
3.9999999769637351
 31
0.0
  0
LINE
  5
1EB
  8
0
 10
30.250000021756151
 20
3.9999999769637351
 30
0.0
 11
30.250000021756151
 21
-0.0000000230362574
 31
0.0
  0
LINE
  5
1EC
  8
0
 10
18.250000021756129
 20
3.9999999769637351
 30
0.0
 11
18.250000021756129
 21
-0.0000000230362574
 31
0.0
  0
ARC
  5
1ED
  8
0
 10
30.033365320192271
 20
34.499999976963771
 30
0.0
 40
4.5
 50
50.793316429045078
 51
90.0
  0
ARC
  5
1EE
  8
0
 10
18.466634723320901
 20
34.499999976963771
 30
0.0
 40
4.5
 50
90.0
 51
129.20668357095491
  0
LINE
  5
1EF
  8
0
 10
10.500000021756129
 20
-0.0000000230362574
 30
0.0
 11
18.250000021756129
 21
-0.0000000230362574
 31
0.0
  0
LINE
  5
1F0
  8
0
 10
30.250000021756151
 20
-0.0000000230362574
 30
0.0
 11
38.000000021755923
 21
-0.0000000230362574
 31
0.0
  0
CIRCLE
  5
1F1
  8
0
 10
17.000000021756119
 20
18.499999976963728
 30
0.0
 40
0.8999999999999984
  0
CIRCLE
  5
1F2
  8
0
 10
45.500000021755888
 20
18.499999976963728
 30
0.0
 40
0.8999999999999984
  0
CIRCLE
  5
AC1
  8
0
 10
45.909631408339209
 20
36.84739433330958
 30
0.0
 40
3.0
  0
CIRCLE
  5
AC2
  8
0
 10
45.909631408339209
 20
36.84739433330958
 30
0.0
 40
1.5
  0
CIRCLE
  5
AC3
  8
0
 10
68.969905330647393
 20
2.8388877330724722
 30
0.0
 40
1.5
  0
CIRCLE
  5
AC4
  8
0
 10
74.969905330647393
 20
19.808887733072471
 30
0.0
 40
1.5
  0
LINE
  5
AC5
  8
0
 10
80.469905330647393
 20
22.808887733072481
 30
0.0
 11
80.469905330647393
 21
47.808887733072467
 31
0.0
  0
LINE
  5
AC6
  8
0
 10
80.469905330647393
 20
47.808887733072467
 30
0.0
 11
73.969905330647393
 21
47.808887733072467
 31
0.0
  0
LINE
  5
AC7
  8
0
 10
73.969905330647393
 20
47.808887733072467
 30
0.0
 11
73.969905330647393
 21
22.808887733072481
 31
0.0
  0
LINE
  5
AC8
  8
0
 10
73.969905330647393
 20
22.808887733072481
 30
0.0
 11
72.469905330647393
 21
22.808887733072481
 31
0.0
  0
LINE
  5
AC9
  8
0
 10
66.101392057425215
 20
3.7173133709885802
 30
0.0
 11
72.469905330647393
 21
22.808887733072481
 31
0.0
  0
LINE
  5
ACA
  8
0
 10
71.776251022072501
 20
1.7784991909711221
 30
0.0
 11
80.469905330647393
 21
22.808887733072481
 31
0.0
  0
ARC
  5
ACB
  8
0
 10
68.969905330647393
 20
2.8388877330724722
 30
0.0
 40
3.0
 50
162.97382538502919
 51
339.30073477631709
  0
LINE
  5
ACC
  8
0
 10
81.804200778578206
 20
90.830969347016946
 30
0.0
 11
110.80420077857821
 21
90.830969347016946
 31
0.0
  0
LINE
  5
ACD
  8
0
 10
110.80420077857821
 20
84.830969347016975
 30
0.0
 11
81.804200778578206
 21
84.830969347016975
 31
0.0
  0
ARC
  5
ACE
  8
0
 10
81.804200778578206
 20
87.830969347016989
 30
0.0
 40
3.0
 50
90.0
 51
270.0
  0
ARC
  5
ACF
  8
0
 10
110.80420077857821
 20
87.830969347016989
 30
0.0
 40
3.0
 50
270.0
 51
90.0
  0
CIRCLE
  5
AD0
  8
0
 10
81.804200778578206
 20
87.830969347016989
 30
0.0
 40
1.5
  0
CIRCLE
  5
AD1
  8
0
 10
110.80420077857821
 20
87.830969347016989
 30
0.0
 40
1.5
  0
LINE
  5
AD2
  8
0
 10
74.44515234211147
 20
83.368284576895334
 30
0.0
 11
74.445152342111442
 21
59.868284576895348
 31
0.0
  0
LINE
  5
AD3
  8
0
 10
66.445152342111442
 20
51.868284576895348
 30
0.0
 11
74.445152342111442
 21
59.868284576895348
 31
0.0
  0
LINE
  5
AD4
  8
0
 10
66.445152342111442
 20
51.868284576895348
 30
0.0
 11
62.44515234211142
 21
51.868284576895348
 31
0.0
  0
LINE
  5
AD5
  8
0
 10
54.44515234211142
 20
59.868284576895348
 30
0.0
 11
62.44515234211142
 21
51.868284576895348
 31
0.0
  0
LINE
  5
AD6
  8
0
 10
54.44515234211142
 20
59.868284576895348
 30
0.0
 11
54.44515234211142
 21
83.368284576895235
 31
0.0
  0
LINE
  5
AD7
  8
0
 10
62.445152342111399
 20
91.368284576895306
 30
0.0
 11
66.44515234211147
 21
91.368284576895348
 31
0.0
  0
LINE
  5
AD8
  8
0
 10
54.44515234211142
 20
83.368284576895235
 30
0.0
 11
62.445152342111399
 21
91.368284576895306
 31
0.0
  0
LINE
  5
AD9
  8
0
 10
74.44515234211147
 20
83.368284576895334
 30
0.0
 11
66.44515234211147
 21
91.368284576895348
 31
0.0
  0
LINE
  5
ADA
  8
0
 10
62.44515234211142
 20
85.368284576895235
 30
0.0
 11
66.445152342111442
 21
85.368284576895235
 31
0.0
  0
LINE
  5
ADB
  8
0
 10
66.445152342111442
 20
85.368284576895235
 30
0.0
 11
66.445152342111442
 21
77.618284576895235
 31
0.0
  0
LINE
  5
ADC
  8
0
 10
66.445152342111442
 20
77.618284576895235
 30
0.0
 11
62.44515234211142
 21
77.618284576895235
 31
0.0
  0
LINE
  5
ADD
  8
0
 10
62.44515234211142
 20
77.618284576895235
 30
0.0
 11
62.44515234211142
 21
85.368284576895235
 31
0.0
  0
LINE
  5
ADE
  8
0
 10
62.44515234211142
 20
65.618284576895249
 30
0.0
 11
66.445152342111442
 21
65.618284576895249
 31
0.0
  0
LINE
  5
ADF
  8
0
 10
66.445152342111442
 20
65.618284576895249
 30
0.0
 11
66.445152342111442
 21
57.868284576895348
 31
0.0
  0
LINE
  5
AE0
  8
0
 10
66.445152342111442
 20
57.868284576895348
 30
0.0
 11
62.44515234211142
 21
57.868284576895348
 31
0.0
  0
LINE
  5
AE1
  8
0
 10
62.44515234211142
 20
57.868284576895348
 30
0.0
 11
62.44515234211142
 21
65.618284576895249
 31
0.0
  0
CIRCLE
  5
AE2
  8
0
 10
64.445152342111442
 20
71.618284576895235
 30
0.0
 40
3.0
  0
CIRCLE
  5
AE3
  8
0
 10
71.445152342111442
 20
73.368284576895235
 30
0.0
 40
0.75
  0
CIRCLE
  5
AE4
  8
0
 10
71.445152342111442
 20
69.868284576895249
 30
0.0
 40
0.75
  0
CIRCLE
  5
AE5
  8
0
 10
57.945152342111427
 20
73.368284576895235
 30
0.0
 40
0.5
  0
CIRCLE
  5
AE6
  8
0
 10
57.945152342111427
 20
69.868284576895249
 30
0.0
 40
0.5
  0
LINE
  5
AE7
  8
0
  6
CONTINUOUS
 62
     7
 10
15.929083213392801
 20
46.150500532754563
 30
0.0
 11
17.03853571413276
 21
44.485463804772891
 31
0.0
  0
ARC
  5
AE8
  8
0
  6
CONTINUOUS
 62
     7
 10
14.62313856018886
 20
45.280319390945841
 30
0.0
 40
1.569301327571579
 50
33.676438889400792
 51
114.5369404511997
  0
ARC
  5
AE9
  8
0
  6
CONTINUOUS
 62
     7
 10
10.52023998630732
 20
54.267948222119657
 30
0.0
 40
8.3105391915906939
 50
290.46305954879972
 51
294.5369404511996
  0
ARC
  5
AEA
  8
0
  6
CONTINUOUS
 62
     7
 10
13.97426587851799
 20
45.011547527790597
 30
0.0
 40
1.569301327571579
 50
110.46305954879971
 51
191.32356111059991
  0
LINE
  5
AEB
  8
0
  6
CONTINUOUS
 62
     7
 10
12.828369948876
 20
42.741556045762707
 30
0.0
 11
12.43551257313595
 21
44.70341619124369
 31
0.0
  0
ARC
  5
AEC
  8
0
  6
CONTINUOUS
 62
     7
 10
10.52023998630732
 20
42.27935904094236
 30
0.0
 40
2.35395199285594
 50
6.000486727500129
 51
11.32356111059992
  0
ARC
  5
AED
  8
0
  6
CONTINUOUS
 62
     7
 10
10.52023998630732
 20
42.27935904094236
 30
0.0
 40
2.35395199285594
 50
168.67643888940009
 51
173.99951327249991
  0
LINE
  5
AEE
  8
0
  6
CONTINUOUS
 62
     7
 10
8.5896347574765741
 20
44.626847678073062
 30
0.0
 11
8.2121100267355587
 21
42.741556045762707
 31
0.0
  0
ARC
  5
AEF
  8
0
  6
CONTINUOUS
 62
     7
 10
10.52023998630732
 20
54.267948222119657
 30
0.0
 40
8.3105391915906939
 50
65.463059548800317
 51
68.060832431568457
  0
ARC
  5
AF0
  8
0
  6
CONTINUOUS
 62
     7
 10
14.62313856018886
 20
63.255577056290662
 30
0.0
 40
1.569301327571579
 50
245.46305954880029
 51
326.32356111059909
  0
LINE
  5
AF1
  8
0
  6
CONTINUOUS
 62
     7
 10
17.03853571413276
 20
64.050432642463619
 30
0.0
 11
15.929083213392801
 21
62.385395914482153
 31
0.0
  0
ARC
  5
AF2
  8
0
  6
CONTINUOUS
 62
     7
 10
18.997452693938321
 20
62.74516092975059
 30
0.0
 40
2.35395199285594
 50
141.00048672749921
 51
146.3235611105988
  0
ARC
  5
AF3
  8
0
  6
CONTINUOUS
 62
     7
 10
18.997452693938321
 20
62.74516092975059
 30
0.0
 40
2.35395199285594
 50
303.67643888939989
 51
308.99951327249971
  0
LINE
  5
AF4
  8
0
  6
CONTINUOUS
 62
     7
 10
18.637687678669572
 20
59.676791449205282
 30
0.0
 11
20.30272440665124
 21
60.786243949945117
 31
0.0
  0
ARC
  5
AF5
  8
0
  6
CONTINUOUS
 62
     7
 10
19.507868820478041
 20
58.370846796001643
 30
0.0
 40
1.569301327571579
 50
123.6764388893998
 51
204.53694045119869
  0
ARC
  5
AF6
  8
0
  6
CONTINUOUS
 62
     7
 10
10.52023998630732
 20
54.267948222119657
 30
0.0
 40
8.3105391915906939
 50
20.46305954879908
 51
24.53694045119892
  0
ARC
  5
AF7
  8
0
  6
CONTINUOUS
 62
     7
 10
19.776640683633271
 20
57.721974114330521
 30
0.0
 40
1.569301327571579
 50
200.46305954879901
 51
281.32356111059943
  0
LINE
  5
AF8
  8
0
  6
CONTINUOUS
 62
     7
 10
22.2927257687594
 20
56.611959592768258
 30
0.0
 11
20.084772020180601
 21
56.183220808948413
 31
0.0
  0
LINE
  5
AF9
  8
0
  6
CONTINUOUS
 62
     7
 10
20.084772020180601
 20
52.352675638288147
 30
0.0
 11
22.29272576875934
 21
51.923936851471041
 31
0.0
  0
ARC
  5
AFA
  8
0
  6
CONTINUOUS
 62
     7
 10
19.776640683633271
 20
50.813922332906017
 30
0.0
 40
1.569301327571579
 50
78.676438889400643
 51
159.53694045120091
  0
ARC
  5
AFB
  8
0
  6
CONTINUOUS
 62
     7
 10
10.52023998630732
 20
54.267948222119657
 30
0.0
 40
8.3105391915906939
 50
335.46305954880091
 51
339.53694045120079
  0
ARC
  5
AFC
  8
0
  6
CONTINUOUS
 62
     7
 10
19.507868820478041
 20
50.165049651235122
 30
0.0
 40
1.569301327571579
 50
155.4630595487979
 51
236.3235611106002
  0
LINE
  5
AFD
  8
0
  6
CONTINUOUS
 62
     7
 10
20.30272440665124
 20
47.749652497291393
 30
0.0
 11
18.637687678669572
 21
48.859104998031341
 31
0.0
  0
ARC
  5
AFE
  8
0
  6
CONTINUOUS
 62
     7
 10
18.997452693938321
 20
45.790735517485977
 30
0.0
 40
2.35395199285594
 50
51.000486727500359
 51
56.323561110600217
  0
ARC
  5
AFF
  8
0
  6
CONTINUOUS
 62
     7
 10
18.997452693938321
 20
45.790735517485977
 30
0.0
 40
2.35395199285594
 50
213.67643888940049
 51
218.99951327250079
  0
ARC
  5
B00
  8
0
  6
CONTINUOUS
 62
     7
 10
10.52023998630732
 20
42.27935904094236
 30
0.0
 40
2.35395199285594
 50
174.73257250899999
 51
5.2674274910000252
  0
ARC
  5
B01
  8
0
  6
CONTINUOUS
 62
     7
 10
22.50882916748435
 20
54.267948222119657
 30
0.0
 40
2.35395199285594
 50
264.73257250899832
 51
95.267427491000063
  0
ARC
  5
B02
  8
0
  6
CONTINUOUS
 62
     7
 10
18.997452693938321
 20
62.74516092975059
 30
0.0
 40
2.35395199285594
 50
309.73257250899962
 51
140.26742749099819
  0
ARC
  5
B03
  8
0
  6
CONTINUOUS
 62
     7
 10
18.997452693938321
 20
45.790735517485977
 30
0.0
 40
2.35395199285594
 50
219.7325725090017
 51
50.26742749100034
  0
ARC
  5
B04
  8
0
  6
CONTINUOUS
 62
     7
 10
18.997452693938321
 20
62.74516092975059
 30
0.0
 40
2.35395199285594
 50
308.99951327249971
 51
309.73257250899962
  0
ARC
  5
B05
  8
0
  6
CONTINUOUS
 62
     7
 10
18.997452693938321
 20
62.74516092975059
 30
0.0
 40
2.35395199285594
 50
140.26742749099819
 51
141.00048672749921
  0
ARC
  5
B06
  8
0
  6
CONTINUOUS
 62
     7
 10
10.52023998630732
 20
42.27935904094236
 30
0.0
 40
2.35395199285594
 50
173.99951327249991
 51
174.73257250899999
  0
ARC
  5
B07
  8
0
  6
CONTINUOUS
 62
     7
 10
10.52023998630732
 20
42.27935904094236
 30
0.0
 40
2.35395199285594
 50
5.2674274910000252
 51
6.000486727500129
  0
ARC
  5
B08
  8
0
  6
CONTINUOUS
 62
     7
 10
18.997452693938321
 20
45.790735517485977
 30
0.0
 40
2.35395199285594
 50
218.99951327250079
 51
219.7325725090017
  0
ARC
  5
B09
  8
0
  6
CONTINUOUS
 62
     7
 10
18.997452693938321
 20
45.790735517485977
 30
0.0
 40
2.35395199285594
 50
50.26742749100034
 51
51.000486727500359
  0
LINE
  5
B0A
  8
0
 10
13.625239986307911
 20
83.267948222119372
 30
0.0
 11
13.625239986307911
 21
61.976646987473003
 31
0.0
  0
LINE
  5
B0B
  8
0
 10
7.4152399863078813
 20
83.267948222119372
 30
0.0
 11
7.4152399863078813
 21
63.597312147382439
 31
0.0
  0
ARC
  5
B0C
  8
0
 10
10.520239986307899
 20
54.267948222119351
 30
0.0
 40
9.8324999999999996
 50
108.4084801705864
 51
258.6764388944494
  0
CIRCLE
  5
B0D
  8
0
 10
10.520239986307899
 20
54.267948222119351
 30
0.0
 40
1.5
  0
CIRCLE
  5
B0E
  8
0
 10
10.520239986307899
 20
83.267948222119372
 30
0.0
 40
1.5
  0
ARC
  5
B0F
  8
0
 10
10.520239986307899
 20
83.267948222119372
 30
0.0
 40
3.1049999999999982
 50
0.0
 51
180.0
  0
LINE
  5
B10
  8
0
 10
32.388374196973501
 20
70.528806173710564
 30
0.0
 11
32.388374196973537
 21
82.095536770581901
 31
0.0
  0
CIRCLE
  5
B11
  8
0
 10
28.858374196973561
 20
81.762171472146619
 30
0.0
 40
1.5
  0
CIRCLE
  5
B12
  8
0
 10
28.8583741969735
 20
70.562171472146701
 30
0.0
 40
1.5
  0
LINE
  5
B13
  8
0
 10
28.21653591009385
 20
63.81217147214624
 30
0.0
 11
31.375292603528379
 21
67.684267542222244
 31
0.0
  0
LINE
  5
B14
  8
0
 10
31.375292603528411
 20
84.940075402070264
 30
0.0
 11
28.216535910094009
 21
88.812171472146204
 31
0.0
  0
ARC
  5
B15
  8
0
 10
27.88837419697353
 20
70.528806173710564
 30
0.0
 40
4.5
 50
320.79331642904401
 51
0.0
  0
ARC
  5
B16
  8
0
 10
27.888374196973551
 20
82.095536770581901
 30
0.0
 40
4.5
 50
0.0
 51
39.206683570955242
  0
LINE
  5
B17
  8
0
 10
25.888374196973519
 20
88.812171472146204
 30
0.0
 11
25.888374196973501
 21
63.81217147214624
 31
0.0
  0
LINE
  5
B18
  8
0
 10
25.888374196973501
 20
63.81217147214624
 30
0.0
 11
28.216535910093832
 21
63.81217147214624
 31
0.0
  0
LINE
  5
B19
  8
0
 10
25.888374196973519
 20
88.812171472146204
 30
0.0
 11
28.216535910093981
 21
88.812171472146204
 31
0.0
  0
LINE
  5
B4D
  8
0
 10
45.196668830898282
 20
82.675520613707803
 30
0.0
 11
45.196668830898211
 21
63.00488453897092
 31
0.0
  0
LINE
  5
B4E
  8
0
 10
38.986668830898282
 20
82.675520613707803
 30
0.0
 11
38.986668830898232
 21
67.105484772964545
 31
0.0
  0
LINE
  5
B4F
  8
0
  6
CONTINUOUS
 62
     7
 10
39.813143536941311
 20
42.143239700230772
 30
0.0
 11
40.185826038624292
 21
44.029494514783103
 31
0.0
  0
ARC
  5
B50
  8
0
  6
CONTINUOUS
 62
     7
 10
37.503834373830273
 20
42.59950844553169
 30
0.0
 40
2.35395199285594
 50
343.50048672750052
 51
348.8235611105988
  0
ARC
  5
B51
  8
0
  6
CONTINUOUS
 62
     7
 10
37.503834373830273
 20
42.59950844553169
 30
0.0
 40
2.35395199285594
 50
146.1764388894031
 51
151.49951327249909
  0
LINE
  5
B52
  8
0
  6
CONTINUOUS
 62
     7
 10
36.661999741058906
 20
45.571988317006117
 30
0.0
 11
35.548275478123571
 21
43.909805891924812
 31
0.0
  0
ARC
  5
B53
  8
0
  6
CONTINUOUS
 62
     7
 10
35.358293814121247
 20
46.445519948633901
 30
0.0
 40
1.569301327571579
 50
326.17643888940319
 51
47.036940451199598
  0
ARC
  5
B54
  8
0
  6
CONTINUOUS
 62
     7
 10
42.091668830898243
 20
53.675520613707818
 30
0.0
 40
8.3105391915906939
 50
222.96305954879981
 51
227.0369404511996
  0
ARC
  5
B55
  8
0
  6
CONTINUOUS
 62
     7
 10
34.861668163435333
 20
46.942145596907601
 30
0.0
 40
1.569301327571579
 50
42.963059548799812
 51
123.8235611105998
  0
LINE
  5
B56
  8
0
  6
CONTINUOUS
 62
     7
 10
32.325954106069311
 20
47.132127262936557
 30
0.0
 11
33.988136533874354
 21
48.245851525768892
 31
0.0
  0
ARC
  5
B57
  8
0
  6
CONTINUOUS
 62
     7
 10
31.015656661728201
 20
49.087686156228159
 30
0.0
 40
2.35395199285594
 50
298.50048672749989
 51
303.82356111059983
  0
ARC
  5
B58
  8
0
  6
CONTINUOUS
 62
     7
 10
31.015656661728201
 20
49.087686156228159
 30
0.0
 40
2.35395199285594
 50
101.17643888939951
 51
106.4995132724995
  0
LINE
  5
B59
  8
0
  6
CONTINUOUS
 62
     7
 10
32.522250360428011
 20
51.784813806598393
 30
0.0
 11
30.559387915536998
 21
51.39699531894933
 31
0.0
  0
ARC
  5
B5A
  8
0
  6
CONTINUOUS
 62
     7
 10
32.218071196300663
 20
53.324353248412351
 30
0.0
 40
1.569301327571579
 50
281.17643888939938
 51
2.0369404512004441
  0
ARC
  5
B5B
  8
0
  6
CONTINUOUS
 62
     7
 10
42.091668830898243
 20
53.675520613707818
 30
0.0
 40
8.3105391915906939
 50
177.96305954879941
 51
182.03694045120039
  0
ARC
  5
B5C
  8
0
  6
CONTINUOUS
 62
     7
 10
32.218071198006442
 20
54.026687977329502
 30
0.0
 40
1.569301327571579
 50
357.96305954879961
 51
78.823561110600522
  0
LINE
  5
B5D
  8
0
  6
CONTINUOUS
 62
     7
 10
30.559387916274659
 20
55.954045904895651
 30
0.0
 11
32.522250359311727
 21
55.566227419245251
 31
0.0
  0
ARC
  5
B5E
  8
0
  6
CONTINUOUS
 62
     7
 10
31.015656662722591
 20
58.263355070775653
 30
0.0
 40
2.35395199285594
 50
253.50048672750049
 51
258.82356111060062
  0
ARC
  5
B5F
  8
0
  6
CONTINUOUS
 62
     7
 10
31.015656662722591
 20
58.263355070775653
 30
0.0
 40
2.35395199285594
 50
56.176438889400217
 51
61.499513272500131
  0
LINE
  5
B60
  8
0
  6
CONTINUOUS
 62
     7
 10
33.988136533049541
 20
59.105189700778233
 30
0.0
 11
32.325954107968791
 21
60.21891396371322
 31
0.0
  0
ARC
  5
B61
  8
0
  6
CONTINUOUS
 62
     7
 10
34.861668164677752
 20
60.408895627715587
 30
0.0
 40
1.569301327571579
 50
236.1764388894002
 51
317.03694045120028
  0
ARC
  5
B62
  8
0
  6
CONTINUOUS
 62
     7
 10
42.091668830898243
 20
53.675520613707818
 30
0.0
 40
8.3105391915906939
 50
132.9630595488004
 51
137.03694045120019
  0
ARC
  5
B63
  8
0
  6
CONTINUOUS
 62
     7
 10
35.358293812951601
 20
60.905521278401793
 30
0.0
 40
1.569301327571579
 50
312.96305954880029
 51
33.823561110596863
  0
LINE
  5
B64
  8
0
  6
CONTINUOUS
 62
     7
 10
35.548275478979932
 20
63.441235335767587
 30
0.0
 11
36.661999741812529
 21
61.779052907962701
 31
0.0
  0
ARC
  5
B65
  8
0
  6
CONTINUOUS
 62
     7
 10
37.503834372271569
 20
64.751532780108633
 30
0.0
 40
2.35395199285594
 50
208.50048672750259
 51
213.82356111060241
  0
ARC
  5
B66
  8
0
  6
CONTINUOUS
 62
     7
 10
37.503834373830273
 20
42.59950844553169
 30
0.0
 40
2.35395199285594
 50
152.23257250899911
 51
342.7674274909981
  0
ARC
  5
B67
  8
0
  6
CONTINUOUS
 62
     7
 10
31.015656662722591
 20
58.263355070775653
 30
0.0
 40
2.35395199285594
 50
62.23257250899772
 51
252.7674274909985
  0
ARC
  5
B68
  8
0
  6
CONTINUOUS
 62
     7
 10
31.015656661728201
 20
49.087686156228159
 30
0.0
 40
2.35395199285594
 50
107.2325725090014
 51
297.76742749099878
  0
ARC
  5
B69
  8
0
  6
CONTINUOUS
 62
     7
 10
37.503834372271569
 20
64.751532780108633
 30
0.0
 40
2.35395199285594
 50
90.0
 51
207.76742749100171
  0
ARC
  5
B6A
  8
0
  6
CONTINUOUS
 62
     7
 10
31.015656661728201
 20
49.087686156228159
 30
0.0
 40
2.35395199285594
 50
106.4995132724995
 51
107.2325725090014
  0
ARC
  5
B6B
  8
0
  6
CONTINUOUS
 62
     7
 10
31.015656661728201
 20
49.087686156228159
 30
0.0
 40
2.35395199285594
 50
297.76742749099878
 51
298.50048672749989
  0
ARC
  5
B6C
  8
0
  6
CONTINUOUS
 62
     7
 10
37.503834373830273
 20
42.59950844553169
 30
0.0
 40
2.35395199285594
 50
151.49951327249909
 51
152.23257250899911
  0
ARC
  5
B6D
  8
0
  6
CONTINUOUS
 62
     7
 10
37.503834373830273
 20
42.59950844553169
 30
0.0
 40
2.35395199285594
 50
342.7674274909981
 51
343.50048672750052
  0
ARC
  5
B6E
  8
0
  6
CONTINUOUS
 62
     7
 10
37.503834372271569
 20
64.751532780108633
 30
0.0
 40
2.35395199285594
 50
207.76742749100171
 51
208.50048672750259
  0
ARC
  5
B6F
  8
0
  6
CONTINUOUS
 62
     7
 10
31.015656662722591
 20
58.263355070775653
 30
0.0
 40
2.35395199285594
 50
61.499513272500131
 51
62.232572508898279
  0
ARC
  5
B70
  8
0
  6
CONTINUOUS
 62
     7
 10
31.015656662722591
 20
58.263355070775653
 30
0.0
 40
2.35395199285594
 50
252.7674274909985
 51
253.50048672750049
  0
ARC
  5
B71
  8
0
 10
42.091668830898243
 20
53.675520613707818
 30
0.0
 40
9.8324999999999996
 50
258.82356110211828
 51
71.591519829413585
  0
LINE
  5
B72
  8
0
 10
37.503834372271569
 20
67.105484772964545
 30
0.0
 11
38.986668830898232
 21
67.105484772964545
 31
0.0
  0
CIRCLE
  5
B74
  8
0
 10
42.091668830898243
 20
82.675520613707803
 30
0.0
 40
1.5
  0
ARC
  5
B75
  8
0
 10
42.0916688308983
 20
82.675520613707803
 30
0.0
 40
3.1050000000000182
 50
0.0
 51
180.0
  0
CIRCLE
  5
B9B
  8
0
 10
97.000000021755866
 20
2.9999999769637351
 30
0.0
 40
1.5
  0
CIRCLE
  5
B9C
  8
0
 10
103.0000000217558
 20
19.969999976963731
 30
0.0
 40
1.5
  0
LINE
  5
B9D
  8
0
 10
108.5000000217558
 20
22.969999976963731
 30
0.0
 11
108.5000000217558
 21
47.969999976963727
 31
0.0
  0
LINE
  5
B9E
  8
0
 10
108.5000000217558
 20
47.969999976963727
 30
0.0
 11
102.0000000217558
 21
47.969999976963727
 31
0.0
  0
LINE
  5
B9F
  8
0
 10
102.0000000217558
 20
47.969999976963727
 30
0.0
 11
102.0000000217558
 21
22.969999976963731
 31
0.0
  0
LINE
  5
BA0
  8
0
 10
102.0000000217558
 20
22.969999976963731
 30
0.0
 11
100.5000000217558
 21
22.969999976963731
 31
0.0
  0
LINE
  5
BA1
  8
0
 10
94.131486748533717
 20
3.8784256148798431
 30
0.0
 11
100.5000000217558
 21
22.969999976963731
 31
0.0
  0
LINE
  5
BA2
  8
0
 10
99.806345713180946
 20
1.939611434862385
 30
0.0
 11
108.5000000217558
 21
22.969999976963731
 31
0.0
  0
ARC
  5
BA3
  8
0
 10
97.000000021755866
 20
2.9999999769637351
 30
0.0
 40
3.0
 50
162.97382538502939
 51
339.30073477631709
  0
CIRCLE
  5
BB1
  8
0
 10
83.000000021755881
 20
2.9999999769637351
 30
0.0
 40
1.5
  0
CIRCLE
  5
BB2
  8
0
 10
89.000000021755866
 20
19.969999976963731
 30
0.0
 40
1.5
  0
LINE
  5
BB3
  8
0
 10
94.500000021755866
 20
22.969999976963731
 30
0.0
 11
94.500000021755866
 21
47.969999976963727
 31
0.0
  0
LINE
  5
BB4
  8
0
 10
94.500000021755866
 20
47.969999976963727
 30
0.0
 11
88.000000021755866
 21
47.969999976963727
 31
0.0
  0
LINE
  5
BB5
  8
0
 10
88.000000021755866
 20
47.969999976963727
 30
0.0
 11
88.000000021755866
 21
22.969999976963731
 31
0.0
  0
LINE
  5
BB6
  8
0
 10
88.000000021755866
 20
22.969999976963731
 30
0.0
 11
86.500000021755923
 21
22.969999976963731
 31
0.0
  0
LINE
  5
BB7
  8
0
 10
80.131486748533746
 20
3.8784256148798431
 30
0.0
 11
86.500000021755923
 21
22.969999976963731
 31
0.0
  0
LINE
  5
BB8
  8
0
 10
85.806345713180974
 20
1.939611434862385
 30
0.0
 11
94.500000021755866
 21
22.969999976963731
 31
0.0
  0
ARC
  5
BB9
  8
0
 10
83.000000021755881
 20
2.9999999769637351
 30
0.0
 40
3.0
 50
162.97382538502939
 51
339.30073477631709
  0
CIRCLE
  5
BC7
  8
0
 10
54.969905330647393
 20
2.8388877330724722
 30
0.0
 40
1.5
  0
CIRCLE
  5
BC8
  8
0
 10
60.969905330647379
 20
19.808887733072471
 30
0.0
 40
1.5
  0
LINE
  5
BC9
  8
0
 10
66.46990533064735
 20
22.808887733072481
 30
0.0
 11
66.46990533064735
 21
47.808887733072467
 31
0.0
  0
LINE
  5
BCA
  8
0
 10
66.46990533064735
 20
47.808887733072467
 30
0.0
 11
59.969905330647393
 21
47.808887733072467
 31
0.0
  0
LINE
  5
BCB
  8
0
 10
59.969905330647393
 20
47.808887733072467
 30
0.0
 11
59.969905330647393
 21
22.808887733072481
 31
0.0
  0
LINE
  5
BCC
  8
0
 10
59.969905330647393
 20
22.808887733072481
 30
0.0
 11
58.469905330647379
 21
22.808887733072481
 31
0.0
  0
LINE
  5
BCD
  8
0
 10
52.101392057425208
 20
3.7173133709885842
 30
0.0
 11
58.469905330647379
 21
22.808887733072481
 31
0.0
  0
LINE
  5
BCE
  8
0
 10
57.776251022072437
 20
1.778499190971125
 30
0.0
 11
66.46990533064735
 21
22.808887733072481
 31
0.0
  0
ARC
  5
BCF
  8
0
 10
54.969905330647393
 20
2.8388877330724722
 30
0.0
 40
3.0
 50
162.9738253850293
 51
339.30073477631709
  0
LINE
  5
BDA
  8
0
 10
81.804200778578206
 20
79.830969347016975
 30
0.0
 11
110.80420077857821
 21
79.830969347016975
 31
0.0
  0
LINE
  5
BDB
  8
0
 10
110.80420077857821
 20
73.830969347016989
 30
0.0
 11
81.804200778578206
 21
73.830969347016989
 31
0.0
  0
ARC
  5
BDC
  8
0
 10
81.804200778578206
 20
76.830969347016989
 30
0.0
 40
3.0
 50
90.0
 51
270.0
  0
ARC
  5
BDD
  8
0
 10
110.80420077857821
 20
76.830969347016989
 30
0.0
 40
3.0
 50
270.0
 51
90.0
  0
CIRCLE
  5
BDE
  8
0
 10
81.804200778578206
 20
76.830969347016989
 30
0.0
 40
1.5
  0
CIRCLE
  5
BDF
  8
0
 10
110.80420077857821
 20
76.830969347016989
 30
0.0
 40
1.5
  0
LINE
  5
BEA
  8
0
 10
81.804200778578206
 20
57.830969347017003
 30
0.0
 11
110.80420077857821
 21
57.830969347017003
 31
0.0
  0
LINE
  5
BEB
  8
0
 10
110.80420077857821
 20
51.830969347017003
 30
0.0
 11
81.804200778578206
 21
51.830969347017003
 31
0.0
  0
ARC
  5
BEC
  8
0
 10
81.804200778578206
 20
54.830969347017003
 30
0.0
 40
3.0
 50
90.0
 51
270.0
  0
ARC
  5
BED
  8
0
 10
110.80420077857821
 20
54.830969347017003
 30
0.0
 40
3.0
 50
270.0
 51
90.0
  0
CIRCLE
  5
BEE
  8
0
 10
81.804200778578206
 20
54.830969347017003
 30
0.0
 40
1.5
  0
CIRCLE
  5
BEF
  8
0
 10
110.80420077857821
 20
54.830969347017003
 30
0.0
 40
1.5
  0
LINE
  5
C0A
  8
0
 10
81.804200778578206
 20
68.830969347017003
 30
0.0
 11
110.80420077857821
 21
68.830969347017003
 31
0.0
  0
LINE
  5
C0B
  8
0
 10
110.80420077857821
 20
62.830969347017003
 30
0.0
 11
81.804200778578206
 21
62.830969347017003
 31
0.0
  0
ARC
  5
C0C
  8
0
 10
81.804200778578206
 20
65.830969347017003
 30
0.0
 40
3.0
 50
90.0
 51
270.0
  0
ARC
  5
C0D
  8
0
 10
110.80420077857821
 20
65.830969347017003
 30
0.0
 40
3.0
 50
270.0
 51
90.0
  0
CIRCLE
  5
C0E
  8
0
 10
81.804200778578206
 20
65.830969347017003
 30
0.0
 40
1.5
  0
CIRCLE
  5
C0F
  8
0
 10
110.80420077857821
 20
65.830969347017003
 30
0.0
 40
1.5
  0
CIRCLE
  5
D68
  8
0
 10
42.091668830898243
 20
53.675520613707818
 30
0.0
 40
3.0
  0
CIRCLE
  5
D69
  8
0
 10
40.341668830898243
 20
60.675520613707818
 30
0.0
 40
0.75
  0
CIRCLE
  5
D6A
  8
0
 10
43.841668830898243
 20
60.675520613707818
 30
0.0
 40
0.75
  0
CIRCLE
  5
D6B
  8
0
 10
40.341668830898243
 20
47.175520613707803
 30
0.0
 40
0.5
  0
CIRCLE
  5
D6C
  8
0
 10
43.841668830898243
 20
47.175520613707803
 30
0.0
 40
0.5
  0
ENDSEC
  0
EOF
